<?xml version="1.0" encoding="UTF-8" standalone="no"?>
<!-- Created with Inkscape (http://www.inkscape.org/) -->

<svg
   xmlns:dc="http://purl.org/dc/elements/1.1/"
   xmlns:cc="http://creativecommons.org/ns#"
   xmlns:rdf="http://www.w3.org/1999/02/22-rdf-syntax-ns#"
   xmlns:svg="http://www.w3.org/2000/svg"
   xmlns="http://www.w3.org/2000/svg"
   xmlns:sodipodi="http://sodipodi.sourceforge.net/DTD/sodipodi-0.dtd"
   xmlns:inkscape="http://www.inkscape.org/namespaces/inkscape"
   width="215"
   height="55"
   viewBox="0 0 215 55"
   id="svg4347"
   version="1.1"
   inkscape:version="0.91 r13725"
   sodipodi:docname="logo.svg">
  <defs
     id="defs4349" />
  <sodipodi:namedview
     id="base"
     pagecolor="#ffffff"
     bordercolor="#666666"
     borderopacity="1.0"
     inkscape:pageopacity="0.0"
     inkscape:pageshadow="2"
     inkscape:zoom="1.979899"
     inkscape:cx="23.021552"
     inkscape:cy="26.557826"
     inkscape:document-units="px"
     inkscape:current-layer="layer1"
     showgrid="true"
     inkscape:window-width="1536"
     inkscape:window-height="801"
     inkscape:window-x="-8"
     inkscape:window-y="-8"
     inkscape:window-maximized="1"
     inkscape:snap-bbox="true"
     inkscape:bbox-nodes="true"
     units="px">
    <inkscape:grid
       type="xygrid"
       id="grid3337" />
  </sodipodi:namedview>
  <metadata
     id="metadata4352">
    <rdf:RDF>
      <cc:Work
         rdf:about="">
        <dc:format>image/svg+xml</dc:format>
        <dc:type
           rdf:resource="http://purl.org/dc/dcmitype/StillImage" />
        <dc:title></dc:title>
      </cc:Work>
    </rdf:RDF>
  </metadata>
  <g
     inkscape:label="Layer 1"
     inkscape:groupmode="layer"
     id="layer1"
     transform="translate(0,-997.36214)">
    <path
       style="fill:#ffffff;fill-opacity:1"
       d="m 40.861328,997.36214 c -4.17942,0.5234 -9.129346,2.25156 -14.878906,5.22656 -6.93659,3.5697 -12.879215,7.8703 -17.8281251,12.9004 C 2.718607,1021.0059 0,1026.0756 0,1030.7 c 0,1.5009 0.669172,2.9411 2.007812,4.3203 1.33864,1.3792 2.758866,2.0684 4.2597661,2.0684 2.79897,0 6.6521969,-1.2964 11.5605469,-3.8926 3.93479,-2.1093 8.235431,-4.8479 12.900391,-8.2148 3.08292,-2.2717 6.368842,-4.8484 9.857422,-7.7285 -0.405651,1.5414 -0.873051,3.2253 -1.400391,5.0507 -0.77073,2.718 -1.318058,4.2999 -1.642578,4.7461 -0.08113,0.081 -0.832183,0.7304 -2.251953,1.9473 -0.52735,0.4462 -0.972811,0.9935 -1.337891,1.6426 -0.97356,1.7443 -2.311905,5.172 -4.015625,10.2832 -1.66316,5.1517 -2.496094,8.4975 -2.496094,10.0391 0,0.1622 0.121845,0.4878 0.365235,0.9746 l 0.851562,0.4257 c 0.56791,-0.1217 1.786354,-0.9127 3.652344,-2.373 1.90654,-1.4198 3.001206,-2.4145 3.285156,-2.9824 1.17638,-2.3122 2.656556,-5.8199 4.441406,-10.5254 1.78485,-4.7461 3.448775,-9.5741 4.990235,-14.4824 1.54147,-4.9084 2.3125,-8.1943 2.3125,-9.8575 0,-0.5273 -0.305593,-1.1965 -0.914063,-2.0078 -0.60847,-0.8113 -1.155798,-1.2363 -1.642578,-1.2773 -2.23106,1.1358 -5.616896,3.7326 -10.160156,7.789 -5.23287,4.7056 -8.946219,7.8077 -11.136719,9.3086 -4.34044,3.0018 -8.273584,4.5039 -11.802734,4.5039 -1.25751,0 -1.886719,-0.6911 -1.886719,-2.0703 0,-4.4215 3.0622,-9.715 9.1875,-15.8808 6.16585,-6.2065 11.419326,-9.3086 15.759766,-9.3086 0.85186,0 2.921281,0.3236 6.207031,0.9726 1.41977,0.284 2.636271,0.4258 3.65039,0.4258 0.08113,0 0.282912,-0.06 0.607422,-0.1816 0.32452,-0.1623 0.71004,-0.366 1.15625,-0.6094 l 0.609375,-1.3379 c -0.36508,-1.582 -0.912408,-3.10414 -1.642578,-4.56444 -0.32452,-0.1217 -0.690053,-0.26349 -1.095703,-0.42579 -0.10254,-0.0512 -0.169506,-0.0772 -0.253906,-0.11523 l -3.121094,0 z m 91.843752,1.08984 c -0.93299,0 -2.12951,0.32356 -3.58985,0.97266 -1.46033,0.60836 -2.35126,1.23766 -2.67578,1.88676 2.23107,1.4603 4.4623,2.9005 6.69336,4.3203 2.27163,2.1499 4.15731,5.3939 5.65821,9.7343 -4.66496,2.1906 -8.13267,4.4018 -10.4043,6.6329 -3.12349,3.0829 -4.68555,6.7543 -4.68555,11.0136 0,1.5415 0.44547,2.8599 1.33789,3.9551 0.93299,1.0953 2.14949,1.6426 3.65039,1.6426 4.70552,0 8.82438,-2.6168 12.35352,-7.8496 3.12349,-4.665 4.68359,-9.451 4.68359,-14.3594 0,-3.9754 -1.13462,-7.8285 -3.40625,-11.5605 -2.59615,-4.2593 -5.80214,-6.38872 -9.61523,-6.38872 z m 26.84375,8.94332 c -0.60847,0 -1.56326,0.2437 -2.86133,0.7305 -1.25751,0.4462 -1.98663,0.8517 -2.18945,1.2168 l -0.91211,1.4004 c -0.24339,0.2839 -0.4671,0.5876 -0.66992,0.9121 -0.16224,0.3245 -0.24414,0.6282 -0.24414,0.9121 0,0.4462 0.10186,0.8517 0.30468,1.2168 0.20283,0.3245 0.5284,0.4883 0.97461,0.4883 0.40565,0 0.95298,-0.062 1.64258,-0.1836 0.6896,-0.1217 1.48062,-0.2635 2.37305,-0.4258 0.89242,-0.1622 1.43974,-0.364 1.64258,-0.6074 0.24338,-0.2434 0.54702,-0.8127 0.9121,-1.7051 0.0811,-0.2028 0.20298,-0.5264 0.36524,-0.9726 0.20282,-0.4868 0.30469,-0.8923 0.30469,-1.2168 0,-1.1764 -0.54733,-1.7657 -1.64258,-1.7657 z m -37.72461,5.0508 c -0.20283,0 -0.65025,0.2038 -1.33984,0.6094 -0.32452,0.2028 -0.76999,0.4865 -1.3379,0.8516 -1.29807,0.7707 -2.14903,1.5417 -2.55468,2.3125 -0.40565,0.7301 -0.60938,1.8648 -0.60938,3.4062 0,0.5679 0.04,1.0753 0.1211,1.5215 0.0811,0.4462 0.20297,0.8917 0.36523,1.3379 -0.12169,0.1622 -0.85081,1.2589 -2.18945,3.2871 -0.52735,0.8113 -0.85292,1.2569 -0.97461,1.3379 l -0.24219,-0.3652 c 0.0406,-0.2029 0.20237,-1.0339 0.48633,-2.4942 0.32452,-1.5009 0.48633,-2.7593 0.48633,-3.7734 0,-0.8924 -0.10187,-1.6835 -0.30469,-2.3731 -0.20283,-0.7301 -0.64829,-1.0937 -1.33789,-1.0937 -0.36509,0 -0.81055,0.1618 -1.33789,0.4863 -0.52735,0.3245 -0.91286,0.4863 -1.15625,0.4863 -1.25751,0.2029 -2.33219,0.4865 -3.22461,0.8516 -1.33864,0.5679 -2.00977,1.3389 -2.00977,2.3125 0,0.4868 0.18375,0.8323 0.54883,1.0352 0.36508,0.1621 0.81055,0.2421 1.33789,0.2421 l 1.03516,0 0.0605,2.7383 c 0,0.7708 -0.0599,1.6037 -0.18164,2.4961 -0.12169,0.8924 -0.30544,1.6615 -0.54882,2.3106 -0.20283,0.6084 -0.85202,1.5632 -1.94727,2.8613 -0.32452,0.4056 -0.83188,0.973 -1.52148,1.7031 0,0.6085 0.46739,1.4195 1.40039,2.4336 0.93299,1.0141 1.72401,1.5215 2.37304,1.5215 2.06881,0 4.19816,-1.8057 6.38868,-5.416 1.13581,-1.9066 2.6579,-4.5233 4.56445,-7.8496 0.28395,0.4867 0.58759,0.9142 0.91211,1.2793 0.36508,0.3245 0.73062,0.4863 1.0957,0.4863 0.60847,0 1.39949,-0.2237 2.37305,-0.6699 1.01412,-0.4868 1.51953,-0.9942 1.51953,-1.5215 0,-1.1764 -0.24174,-2.0274 -0.72852,-2.5547 -0.44621,-0.5679 -0.66992,-1.0953 -0.66992,-1.582 0,-0.6896 0.26367,-1.5425 0.79102,-2.5567 0.52734,-1.0141 0.79101,-1.6214 0.79101,-1.8242 0,-0.6085 -0.28365,-1.3995 -0.85156,-2.373 -0.52734,-0.9736 -1.05469,-1.461 -1.58203,-1.461 z m -61.388673,1.5215 c -0.36509,0 -1.218001,0.3855 -2.556641,1.1563 -1.33864,0.7301 -2.149633,1.2375 -2.433594,1.5214 -0.85186,0.8925 -2.06836,3.8128 -3.65039,8.7618 -1.54146,4.9083 -2.3125,8.0724 -2.3125,9.4922 0,0.649 0.405497,1.44 1.216797,2.373 0.85186,0.8924 1.602913,1.3379 2.251953,1.3379 0.32452,0 0.628159,-0.06 0.912109,-0.1817 0.32452,-0.1215 0.730017,-0.3853 1.216797,-0.791 l 3.042969,-1.8261 c 1.05468,-0.7708 2.331131,-2.0692 3.832031,-3.8946 l 3.164063,-4.1367 c -0.20282,1.3792 -0.404602,2.7775 -0.607422,4.1973 -0.20282,1.4197 -0.304688,2.78 -0.304688,4.0781 0,0.4462 0.283663,1.0135 0.851563,1.7031 0.60848,0.6491 1.115834,0.9746 1.521484,0.9746 0.77073,0 1.743542,-0.4874 2.919922,-1.4609 1.17638,-1.0141 1.927433,-1.907 2.251953,-2.6777 -0.04056,-0.284 -0.162414,-0.7714 -0.365234,-1.461 -0.16229,-0.7301 -0.242188,-1.2975 -0.242188,-1.7031 0,-0.9736 0.405497,-3.4485 1.216797,-7.4238 0.36508,-1.7849 0.546875,-3.2651 0.546875,-4.4414 0,-0.6491 -0.181795,-1.4001 -0.546875,-2.252 -0.36508,-0.8519 -0.812494,-1.2773 -1.339844,-1.2773 -1.41976,0 -3.041767,1.2983 -4.867187,3.8945 -1.5009,2.4339 -2.981066,4.8669 -4.441406,7.3008 -1.58203,2.5961 -2.758557,3.8945 -3.529297,3.8945 -0.48677,0 -0.730469,-0.3036 -0.730469,-0.9121 1.74428,-4.1782 3.508119,-8.377 5.292969,-12.5957 -0.40564,-1.1358 -0.689303,-1.8649 -0.851563,-2.1895 -0.48678,-0.9735 -0.972204,-1.4609 -1.458984,-1.4609 z m 35.117187,1.2774 c -3.529141,0 -8.091503,2.353 -13.689453,7.0585 -5.55738,4.6651 -8.33789,8.6401 -8.33789,11.9258 0,1.0142 0.223711,2.0089 0.669921,2.9825 0.446221,0.9329 1.095406,1.3984 1.947266,1.3984 2.71784,0 5.41647,-0.7091 8.09375,-2.1289 2.71784,-1.4198 4.907154,-3.2455 6.570313,-5.4766 -0.04057,0.3245 -0.06055,0.6901 -0.06055,1.0957 l 0,1.3379 c 0,1.7443 0.141827,3.2464 0.425781,4.5039 0.283954,1.2575 0.831281,1.8848 1.642578,1.8848 0.283954,0 0.831281,0.042 1.642578,0.123 0.811297,0.1217 1.400542,0.1817 1.765625,0.1817 0.446214,0 0.851714,-0.2018 1.216797,-0.6074 0.365084,-0.3651 0.608774,-0.7726 0.730469,-1.2188 -0.04057,-0.3245 -0.182392,-0.79 -0.425781,-1.3984 -0.202825,-0.6491 -0.304688,-1.1564 -0.304688,-1.5215 0,-2.1905 0.669173,-5.2527 2.007813,-9.1875 1.338644,-3.9348 2.007814,-6.5915 2.007814,-7.9707 0,-0.933 -0.79102,-1.7041 -2.373049,-2.3125 -1.17638,-0.4462 -2.352916,-0.6699 -3.529297,-0.6699 z m 87.943356,0 c -3.52914,0 -8.0915,2.353 -13.68945,7.0585 -5.55738,4.6651 -8.33789,8.6401 -8.33789,11.9258 0,1.0142 0.22371,2.0089 0.66992,2.9825 0.44622,0.9329 1.09541,1.3984 1.94727,1.3984 2.71784,0 5.41647,-0.7091 8.09375,-2.1289 2.71784,-1.4198 4.90715,-3.2455 6.57031,-5.4766 -0.0406,0.3245 -0.0606,0.6901 -0.0606,1.0957 l 0,1.3379 c 0,1.7443 0.14183,3.2464 0.42578,4.5039 0.28396,1.2575 0.83129,1.8848 1.64258,1.8848 0.28396,0 0.83128,0.042 1.64258,0.123 0.8113,0.1217 1.40054,0.1817 1.76563,0.1817 0.44621,0 0.85171,-0.2018 1.21679,-0.6074 0.36509,-0.3651 0.60878,-0.7726 0.73047,-1.2188 -0.0406,-0.3245 -0.18239,-0.79 -0.42578,-1.3984 -0.20282,-0.6491 -0.30469,-1.1564 -0.30469,-1.5215 0,-2.1905 0.66919,-5.2527 2.00781,-9.1875 1.33865,-3.9348 2.00782,-6.5915 2.00782,-7.9707 0,-0.933 -0.79102,-1.7041 -2.37305,-2.3125 -1.17638,-0.4462 -2.35292,-0.6699 -3.5293,-0.6699 z m 17.26563,0.121 c -0.1217,0 -0.79087,0.3056 -2.00781,0.9141 -1.17638,0.5679 -1.80562,0.9115 -1.88672,1.0332 -0.60848,0.7707 -1.74309,3.9149 -3.40625,9.4317 -1.66316,5.4763 -2.4961,8.7022 -2.4961,9.6757 0,0.2029 0.26368,0.5884 0.79102,1.1563 0.56791,0.5273 0.95343,0.8509 1.15625,0.9726 1.21694,-0.5273 2.45538,-1.0547 3.71289,-1.582 l 7.42188,-10.2226 c 2.23106,-3.083 3.52944,-4.6231 3.89453,-4.6231 l 0.24414,0.4258 c -0.0406,0.3651 -0.85157,2.7162 -2.4336,7.0566 -0.5679,1.5821 -0.85351,3.0023 -0.85351,4.2598 0,1.1358 0.14378,2.1906 0.42773,3.1641 0.32452,0.9736 0.91181,1.4609 1.76367,1.4609 0.8113,0 2.10967,-0.4873 3.89454,-1.4609 1.78485,-1.0141 2.67773,-1.8452 2.67773,-2.4942 0,-0.2028 -0.18375,-0.5684 -0.54883,-1.0957 -0.36508,-0.5273 -0.54687,-0.8929 -0.54687,-1.0957 0,-1.3792 0.4055,-3.4886 1.21679,-6.3281 0.8113,-2.8396 1.2168,-5.0289 1.2168,-6.5703 0,-1.1764 -0.16181,-2.0893 -0.48633,-2.7383 -0.44621,-0.8924 -1.19727,-1.3399 -2.25195,-1.3399 -1.74429,0 -4.25917,1.8678 -7.54492,5.5997 -1.86599,2.3528 -3.71169,4.6838 -5.53711,6.9961 l 2.06836,-4.9883 c 0.0406,-0.1217 0.52794,-1.0765 1.46093,-2.8614 0.68961,-1.3386 1.03516,-2.1895 1.03516,-2.5546 l -0.36523,-0.9727 c -0.40565,-0.3651 -0.83309,-0.6507 -1.2793,-0.8535 -0.44621,-0.2434 -0.89168,-0.3653 -1.33789,-0.3653 z m -42.73438,0.1836 c -0.0406,0 -0.30423,0.1019 -0.79101,0.3047 -0.48678,0.2028 -0.77046,0.3448 -0.85156,0.4258 -0.73017,0.4462 -1.56311,0.8317 -2.4961,1.1563 -0.93299,0.3245 -1.56025,0.6681 -1.88476,1.0332 -0.28396,0.365 -0.62951,1.0761 -1.03516,2.1308 l -4.01563,10.0996 c -0.28395,0.7302 -0.48768,1.3594 -0.60937,1.8868 -0.12174,0.5273 -0.18164,1.1365 -0.18164,1.8261 0,1.0953 0.3436,2.0681 1.0332,2.9199 0.73017,0.8113 1.62305,1.2168 2.67774,1.2168 0.52734,0 1.19651,-0.2017 2.00781,-0.6074 0.85186,-0.4462 1.50105,-0.71 1.94726,-0.791 1.46035,-0.3651 2.86058,-0.9344 4.19922,-1.7051 1.70373,-1.0141 2.55469,-2.1088 2.55469,-3.2851 0,-0.6896 -0.3436,-1.0352 -1.0332,-1.0352 -0.24339,0 -0.83264,0.3056 -1.76563,0.9141 -0.93299,0.6085 -1.68209,0.9121 -2.25,0.9121 -0.52734,0 -0.89288,-0.1617 -1.0957,-0.4863 -0.20282,-0.365 -0.30469,-0.8525 -0.30469,-1.461 0,-1.866 0.85097,-4.4827 2.55469,-7.8496 1.70372,-3.3669 2.55664,-5.3145 2.55664,-5.8418 0,-0.5273 -0.10186,-0.9528 -0.30469,-1.2773 -0.16226,-0.3246 -0.46589,-0.4864 -0.91211,-0.4864 z m -18.50586,2.8594 c 0.24339,1.2981 0.38519,2.1292 0.42579,2.4942 0.0405,0.3246 0.0605,0.7919 0.0605,1.4003 0,2.3123 -0.62921,4.6453 -1.88672,6.9981 -1.46033,2.7584 -3.22416,4.1367 -5.29297,4.1367 -0.68959,0 -1.157,-0.1418 -1.40039,-0.4258 -0.20282,-0.2839 -0.30468,-0.7713 -0.30468,-1.4609 0,-2.1499 0.97476,-4.6029 2.92187,-7.3613 1.58203,-2.2717 3.40776,-4.1993 5.47656,-5.7813 z m -44.273433,0.4258 c 0.446213,0 0.669922,0.1418 0.669922,0.4258 0,1.5414 -1.825727,4.3419 -5.476563,8.3984 -3.650836,4.0565 -6.245649,6.084 -7.787109,6.084 -0.36509,0 -0.548828,-0.2237 -0.548828,-0.6699 0,-1.9066 1.743842,-4.7451 5.232422,-8.5176 3.529142,-3.8131 6.165868,-5.7207 7.910156,-5.7207 z m 87.943363,0 c 0.44621,0 0.66992,0.1418 0.66992,0.4258 0,1.5414 -1.82573,4.3419 -5.47656,8.3984 -3.65084,4.0565 -6.24565,6.084 -7.78711,6.084 -0.36509,0 -0.54883,-0.2237 -0.54883,-0.6699 0,-1.9066 1.74384,-4.7451 5.23242,-8.5176 3.52914,-3.8131 6.16587,-5.7207 7.91016,-5.7207 z"
       id="rect4142"
       inkscape:connector-curvature="0" />
  </g>
</svg>
